#N canvas 411 68 820 691 10;
#X obj 234 -121 adc~;
#X obj 160 -56 r x;
#X floatatom 161 -31 5 0 0 0 - - -;
#X obj 160 18 osc~;
#X obj 201 60 *~;
#X obj 235 -4 snapshot~;
#N canvas 476 160 761 727 touch 0;
#X obj 18 -133 cnv 15 325 245 empty empty empty 0 0 0 14 -233017 -66577
0;
#X obj 147 -354 apple/multitouch;
#X msg 185 -414 bang;
#X msg 218 -389 info;
#X obj 242 -342 pddp/print;
#X text 255 -389 output info on right outlet;
#X obj 112 -408 tgl 15 0 empty empty empty 0 -6 0 10 -204786 -1 -1
1 1;
#X text 222 -416 output sensor values;
#X floatatom 71 -271 5 0 0 0 - - -;
#X floatatom 24 -271 5 0 0 0 - - -;
#X obj 0 1000 tgl 15 0 empty tgl0 empty 17 7 0 10 -257985 -1 -1 0 1
;
#X obj 0 1000 tgl 15 0 empty tgl1 empty 17 7 0 10 -260097 -1 -1 0 1
;
#X obj 0 1000 tgl 15 0 empty tgl4 empty 17 7 0 10 -4032 -1 -1 0 1;
#X obj 112 -389 metro 75;
#X obj 0 1000 tgl 15 0 empty tgl3 empty 17 7 0 10 -4034 -1 -1 0 1;
#X obj 27 -243 pack f f;
#X msg 24 -220 pos \$1 \$2;
#X obj 23 -195 send tgl0;
#X floatatom 208 -272 5 0 0 0 - - -;
#X floatatom 161 -272 5 0 0 0 - - -;
#X obj 164 -244 pack f f;
#X msg 161 -221 pos \$1 \$2;
#X floatatom 346 -272 5 0 0 0 - - -;
#X floatatom 299 -272 5 0 0 0 - - -;
#X obj 302 -244 pack f f;
#X msg 299 -221 pos \$1 \$2;
#X floatatom 483 -271 5 0 0 0 - - -;
#X floatatom 436 -271 5 0 0 0 - - -;
#X obj 439 -243 pack f f;
#X msg 436 -220 pos \$1 \$2;
#X floatatom 618 -272 5 0 0 0 - - -;
#X floatatom 571 -272 5 0 0 0 - - -;
#X obj 574 -244 pack f f;
#X msg 571 -221 pos \$1 \$2;
#X obj 160 -196 send tgl1;
#X obj 298 -196 send tgl2;
#X obj 435 -195 send tgl3;
#X obj 570 -196 send tgl4;
#X obj 0 1000 tgl 15 0 empty tgl2 empty 17 7 0 10 -258113 -1 -1 0 1
;
#X msg 95 -244 pos 0 1000;
#X obj 46 -399 tgl 15 0 empty empty empty 17 7 0 10 -262144 -1 -1 1
1;
#X obj 559 -302 getfingerxy 4 20 130;
#X msg 226 -244 pos 0 1000;
#X msg 359 -245 pos 0 1000;
#X msg 496 -245 pos 0 1000;
#X msg 635 -244 pos 0 1000;
#X obj 12 -300 getfingerxy 0 20 130;
#X obj 149 -302 getfingerxy 1 20 130;
#X obj 287 -302 getfingerxy 2 20 130;
#X obj 424 -301 getfingerxy 3 20 130;
#X obj 68 -449 r start;
#X obj 61 -156 s x;
#X obj 101 -154 s y;
#X connect 1 0 41 0;
#X connect 1 0 46 0;
#X connect 1 0 47 0;
#X connect 1 0 48 0;
#X connect 1 0 49 0;
#X connect 1 1 4 0;
#X connect 2 0 1 0;
#X connect 3 0 1 0;
#X connect 6 0 13 0;
#X connect 8 0 15 1;
#X connect 8 0 52 0;
#X connect 9 0 15 0;
#X connect 9 0 51 0;
#X connect 13 0 1 0;
#X connect 15 0 16 0;
#X connect 16 0 17 0;
#X connect 18 0 20 1;
#X connect 19 0 20 0;
#X connect 20 0 21 0;
#X connect 21 0 34 0;
#X connect 22 0 24 1;
#X connect 23 0 24 0;
#X connect 24 0 25 0;
#X connect 25 0 35 0;
#X connect 26 0 28 1;
#X connect 27 0 28 0;
#X connect 28 0 29 0;
#X connect 29 0 36 0;
#X connect 30 0 32 1;
#X connect 31 0 32 0;
#X connect 32 0 33 0;
#X connect 33 0 37 0;
#X connect 39 0 17 0;
#X connect 40 0 41 1;
#X connect 40 0 46 1;
#X connect 40 0 47 1;
#X connect 40 0 48 1;
#X connect 40 0 49 1;
#X connect 41 0 31 0;
#X connect 41 1 30 0;
#X connect 41 2 45 0;
#X connect 42 0 34 0;
#X connect 43 0 35 0;
#X connect 44 0 36 0;
#X connect 45 0 37 0;
#X connect 46 0 9 0;
#X connect 46 1 8 0;
#X connect 46 2 39 0;
#X connect 47 0 19 0;
#X connect 47 1 18 0;
#X connect 47 2 42 0;
#X connect 48 0 23 0;
#X connect 48 1 22 0;
#X connect 48 2 43 0;
#X connect 49 0 27 0;
#X connect 49 1 26 0;
#X connect 49 2 44 0;
#X connect 50 0 40 0;
#X connect 50 0 6 0;
#X restore 131 -118 pd touch;
#X obj 27 -96 tgl 15 0 empty empty empty 17 7 0 10 -262130 -1 -1 1
1;
#X obj 28 -58 s start;
#X obj 221 99 delwrite~ delay1 100;
#X obj 221 120 delread~ delay1 100;
#X obj 203 215 throw~ sound;
#X obj 411 58 catch~ sound;
#X obj 537 8 r y;
#X obj 411 125 hip~;
#X obj 537 108 * 20;
#X obj 537 34 * -1;
#X floatatom 581 83 5 0 0 0 - - -;
#X obj 537 57 + 70;
#X obj 411 180 output~;
#X obj 252 -62 r start;
#X obj 69 97 rev1~;
#X floatatom 64 56 5 0 0 0 - - -;
#X obj 161 -7 * 5;
#X obj 61 2 loadbang;
#X obj 236 17 * 0.5;
#X obj 341 -108 bng 15 250 50 0 empty empty empty 17 7 0 10 -262144
-1 -1;
#X msg 62 22 0.1;
#X obj 458 -41 dbtorms~;
#X obj 251 -38 metro 10;
#X connect 0 0 5 0;
#X connect 0 0 28 0;
#X connect 0 0 4 1;
#X connect 1 0 2 0;
#X connect 2 0 23 0;
#X connect 3 0 4 0;
#X connect 4 0 9 0;
#X connect 4 0 11 0;
#X connect 4 0 21 0;
#X connect 5 0 25 0;
#X connect 7 0 8 0;
#X connect 10 0 11 0;
#X connect 12 0 14 0;
#X connect 13 0 16 0;
#X connect 14 0 19 0;
#X connect 14 0 19 1;
#X connect 15 0 14 1;
#X connect 16 0 18 0;
#X connect 18 0 17 0;
#X connect 18 0 15 0;
#X connect 20 0 29 0;
#X connect 22 0 21 1;
#X connect 23 0 3 0;
#X connect 24 0 27 0;
#X connect 26 0 29 0;
#X connect 27 0 22 0;
#X connect 29 0 5 0;
